<mxfile host="app.diagrams.net" modified="2024-02-11T08:31:01.935Z" agent="Mozilla/5.0 (Windows NT 10.0; Win64; x64) AppleWebKit/537.36 (KHTML, like Gecko) Chrome/121.0.0.0 Safari/537.36 Edg/121.0.0.0" etag="98K84yJdxPNqaHH9Qs6R" version="23.1.2" type="device">
  <diagram name="Page-1" id="kc-JdfTGrSA0bAD2VG1R">
    <mxGraphModel dx="1434" dy="756" grid="1" gridSize="10" guides="1" tooltips="1" connect="1" arrows="1" fold="1" page="1" pageScale="1" pageWidth="1600" pageHeight="900" background="#FFFFFF" math="0" shadow="0">
      <root>
        <mxCell id="0" />
        <mxCell id="1" parent="0" />
        <mxCell id="5xNHKXfiNT54m_kRX64C-115" style="edgeStyle=orthogonalEdgeStyle;rounded=0;orthogonalLoop=1;jettySize=auto;html=1;exitX=0.5;exitY=1;exitDx=0;exitDy=0;entryX=1;entryY=0.5;entryDx=0;entryDy=0;fontColor=#000000;labelBorderColor=none;labelBackgroundColor=none;fontSize=14;" edge="1" parent="1" source="5xNHKXfiNT54m_kRX64C-102" target="5xNHKXfiNT54m_kRX64C-105">
          <mxGeometry relative="1" as="geometry" />
        </mxCell>
        <mxCell id="5xNHKXfiNT54m_kRX64C-102" value="" style="rounded=1;html=1;rotation=90;fontColor=#000000;labelBorderColor=none;labelBackgroundColor=none;whiteSpace=wrap;fontSize=14;" vertex="1" parent="1">
          <mxGeometry x="495" y="610" width="230" height="130" as="geometry" />
        </mxCell>
        <mxCell id="5xNHKXfiNT54m_kRX64C-2" value="Main Script Flow" style="text;strokeColor=none;align=center;fillColor=none;html=1;verticalAlign=middle;rounded=0;fontSize=20;fontColor=#000000;labelBorderColor=none;labelBackgroundColor=none;whiteSpace=wrap;" vertex="1" parent="1">
          <mxGeometry x="630" y="10" width="340" height="30" as="geometry" />
        </mxCell>
        <mxCell id="5xNHKXfiNT54m_kRX64C-11" value="" style="swimlane;startSize=0;fontColor=#000000;labelBorderColor=none;labelBackgroundColor=none;whiteSpace=wrap;fontSize=14;" vertex="1" parent="1">
          <mxGeometry x="70" y="110" width="210" height="270" as="geometry" />
        </mxCell>
        <mxCell id="5xNHKXfiNT54m_kRX64C-1" value="get_raw_data()" style="rounded=0;html=1;fontColor=#000000;labelBorderColor=none;labelBackgroundColor=none;whiteSpace=wrap;fontSize=14;" vertex="1" parent="5xNHKXfiNT54m_kRX64C-11">
          <mxGeometry x="45" y="115" width="120" height="60" as="geometry" />
        </mxCell>
        <mxCell id="5xNHKXfiNT54m_kRX64C-12" value="raw_data.py" style="text;html=1;align=center;verticalAlign=middle;resizable=0;points=[];autosize=1;strokeColor=none;fillColor=none;fontSize=14;fontColor=#000000;labelBorderColor=none;labelBackgroundColor=none;" vertex="1" parent="1">
          <mxGeometry x="130" y="80" width="100" height="30" as="geometry" />
        </mxCell>
        <mxCell id="5xNHKXfiNT54m_kRX64C-15" value="" style="group;fontColor=#000000;labelBorderColor=none;labelBackgroundColor=none;whiteSpace=wrap;fontSize=14;" vertex="1" connectable="0" parent="1">
          <mxGeometry x="300" y="160" width="60" height="180" as="geometry" />
        </mxCell>
        <mxCell id="5xNHKXfiNT54m_kRX64C-14" value="Test Raw Data" style="shape=cylinder3;html=1;boundedLbl=1;backgroundOutline=1;size=15;fontColor=#000000;labelBorderColor=none;labelBackgroundColor=none;whiteSpace=wrap;fontSize=14;" vertex="1" parent="5xNHKXfiNT54m_kRX64C-15">
          <mxGeometry y="80" width="60" height="100" as="geometry" />
        </mxCell>
        <mxCell id="5xNHKXfiNT54m_kRX64C-13" value="Train Raw Data" style="shape=cylinder3;html=1;boundedLbl=1;backgroundOutline=1;size=15;fontColor=#000000;labelBorderColor=none;labelBackgroundColor=none;whiteSpace=wrap;fontSize=14;" vertex="1" parent="5xNHKXfiNT54m_kRX64C-15">
          <mxGeometry width="60" height="100" as="geometry" />
        </mxCell>
        <mxCell id="5xNHKXfiNT54m_kRX64C-17" value="&lt;div style=&quot;font-size: 14px;&quot;&gt;&lt;p style=&quot;font-size: 14px;&quot;&gt;CVSplitter.split()&lt;/p&gt;&lt;/div&gt;" style="rounded=0;html=1;fontColor=#000000;labelBorderColor=none;labelBackgroundColor=none;whiteSpace=wrap;fontSize=14;" vertex="1" parent="1">
          <mxGeometry x="400" y="225" width="130" height="60" as="geometry" />
        </mxCell>
        <mxCell id="5xNHKXfiNT54m_kRX64C-25" value="Feature Extractor" style="rounded=0;html=1;fontColor=#000000;labelBorderColor=none;labelBackgroundColor=none;whiteSpace=wrap;fontSize=14;" vertex="1" parent="1">
          <mxGeometry x="760" y="225" width="120" height="60" as="geometry" />
        </mxCell>
        <mxCell id="5xNHKXfiNT54m_kRX64C-26" value="" style="group;fontColor=#000000;labelBorderColor=none;labelBackgroundColor=none;whiteSpace=wrap;fontSize=14;" vertex="1" connectable="0" parent="1">
          <mxGeometry x="570" y="130" width="200" height="250" as="geometry" />
        </mxCell>
        <mxCell id="5xNHKXfiNT54m_kRX64C-23" value="" style="rounded=1;html=1;rotation=90;fontColor=#000000;labelBorderColor=none;labelBackgroundColor=none;whiteSpace=wrap;fontSize=14;" vertex="1" parent="5xNHKXfiNT54m_kRX64C-26">
          <mxGeometry x="-50" y="70" width="230" height="130" as="geometry" />
        </mxCell>
        <mxCell id="5xNHKXfiNT54m_kRX64C-22" value="" style="rounded=1;html=1;rotation=90;fontColor=#000000;labelBorderColor=none;labelBackgroundColor=none;whiteSpace=wrap;fontSize=14;" vertex="1" parent="5xNHKXfiNT54m_kRX64C-26">
          <mxGeometry x="-40" y="60" width="230" height="130" as="geometry" />
        </mxCell>
        <mxCell id="5xNHKXfiNT54m_kRX64C-18" value="Raw Test" style="shape=cylinder3;html=1;boundedLbl=1;backgroundOutline=1;size=15;fontColor=#000000;labelBorderColor=none;labelBackgroundColor=none;whiteSpace=wrap;fontSize=14;" vertex="1" parent="5xNHKXfiNT54m_kRX64C-26">
          <mxGeometry x="40" y="150" width="90" height="70" as="geometry" />
        </mxCell>
        <mxCell id="5xNHKXfiNT54m_kRX64C-20" value="Raw Validation" style="shape=cylinder3;html=1;boundedLbl=1;backgroundOutline=1;size=15;fontColor=#000000;labelBorderColor=none;labelBackgroundColor=none;whiteSpace=wrap;fontSize=14;" vertex="1" parent="5xNHKXfiNT54m_kRX64C-26">
          <mxGeometry x="40" y="100" width="90" height="70" as="geometry" />
        </mxCell>
        <mxCell id="5xNHKXfiNT54m_kRX64C-21" value="Raw Train" style="shape=cylinder3;html=1;boundedLbl=1;backgroundOutline=1;size=15;fontColor=#000000;labelBorderColor=none;labelBackgroundColor=none;whiteSpace=wrap;fontSize=14;" vertex="1" parent="5xNHKXfiNT54m_kRX64C-26">
          <mxGeometry x="40" y="50" width="90" height="70" as="geometry" />
        </mxCell>
        <mxCell id="5xNHKXfiNT54m_kRX64C-24" value="Raw Fold i" style="text;strokeColor=none;align=center;fillColor=none;html=1;verticalAlign=middle;rounded=0;fontColor=#000000;labelBorderColor=none;labelBackgroundColor=none;whiteSpace=wrap;fontSize=14;" vertex="1" parent="5xNHKXfiNT54m_kRX64C-26">
          <mxGeometry x="55" y="10" width="60" height="30" as="geometry" />
        </mxCell>
        <mxCell id="5xNHKXfiNT54m_kRX64C-66" value="" style="rounded=1;html=1;rotation=90;fontColor=#000000;labelBorderColor=none;labelBackgroundColor=none;whiteSpace=wrap;fontSize=14;" vertex="1" parent="5xNHKXfiNT54m_kRX64C-26">
          <mxGeometry x="-30" y="50" width="230" height="130" as="geometry" />
        </mxCell>
        <mxCell id="5xNHKXfiNT54m_kRX64C-67" value="Raw Test" style="shape=cylinder3;html=1;boundedLbl=1;backgroundOutline=1;size=15;fontColor=#000000;labelBorderColor=none;labelBackgroundColor=none;whiteSpace=wrap;fontSize=14;" vertex="1" parent="5xNHKXfiNT54m_kRX64C-26">
          <mxGeometry x="40" y="150" width="90" height="70" as="geometry" />
        </mxCell>
        <mxCell id="5xNHKXfiNT54m_kRX64C-117" style="edgeStyle=orthogonalEdgeStyle;rounded=0;orthogonalLoop=1;jettySize=auto;html=1;exitX=1;exitY=0.5;exitDx=0;exitDy=0;exitPerimeter=0;fontColor=#000000;labelBorderColor=none;labelBackgroundColor=none;fontSize=14;" edge="1" parent="5xNHKXfiNT54m_kRX64C-26" source="5xNHKXfiNT54m_kRX64C-68">
          <mxGeometry relative="1" as="geometry">
            <mxPoint x="190" y="120" as="targetPoint" />
          </mxGeometry>
        </mxCell>
        <mxCell id="5xNHKXfiNT54m_kRX64C-68" value="Raw Validation" style="shape=cylinder3;html=1;boundedLbl=1;backgroundOutline=1;size=15;fontColor=#000000;labelBorderColor=none;labelBackgroundColor=none;whiteSpace=wrap;fontSize=14;" vertex="1" parent="5xNHKXfiNT54m_kRX64C-26">
          <mxGeometry x="40" y="100" width="90" height="70" as="geometry" />
        </mxCell>
        <mxCell id="5xNHKXfiNT54m_kRX64C-69" value="Raw Train" style="shape=cylinder3;html=1;boundedLbl=1;backgroundOutline=1;size=15;fontColor=#000000;labelBorderColor=none;labelBackgroundColor=none;whiteSpace=wrap;fontSize=14;" vertex="1" parent="5xNHKXfiNT54m_kRX64C-26">
          <mxGeometry x="40" y="50" width="90" height="70" as="geometry" />
        </mxCell>
        <mxCell id="5xNHKXfiNT54m_kRX64C-70" value="Raw Fold i" style="text;strokeColor=none;align=center;fillColor=none;html=1;verticalAlign=middle;rounded=0;fontColor=#000000;labelBorderColor=none;labelBackgroundColor=none;whiteSpace=wrap;fontSize=14;" vertex="1" parent="5xNHKXfiNT54m_kRX64C-26">
          <mxGeometry x="55" y="10" width="60" height="30" as="geometry" />
        </mxCell>
        <mxCell id="5xNHKXfiNT54m_kRX64C-27" value="" style="group;fontColor=#000000;labelBorderColor=none;labelBackgroundColor=none;whiteSpace=wrap;fontSize=14;" vertex="1" connectable="0" parent="1">
          <mxGeometry x="920" y="130" width="150" height="250" as="geometry" />
        </mxCell>
        <mxCell id="5xNHKXfiNT54m_kRX64C-28" value="" style="rounded=1;html=1;rotation=90;fontColor=#000000;labelBorderColor=none;labelBackgroundColor=none;whiteSpace=wrap;fontSize=14;" vertex="1" parent="5xNHKXfiNT54m_kRX64C-27">
          <mxGeometry x="-50" y="70" width="230" height="130" as="geometry" />
        </mxCell>
        <mxCell id="5xNHKXfiNT54m_kRX64C-29" value="" style="rounded=1;html=1;rotation=90;fontColor=#000000;labelBorderColor=none;labelBackgroundColor=none;whiteSpace=wrap;fontSize=14;" vertex="1" parent="5xNHKXfiNT54m_kRX64C-27">
          <mxGeometry x="-40" y="60" width="230" height="130" as="geometry" />
        </mxCell>
        <mxCell id="5xNHKXfiNT54m_kRX64C-30" value="" style="rounded=1;html=1;rotation=90;fontColor=#000000;labelBorderColor=none;labelBackgroundColor=none;whiteSpace=wrap;fontSize=14;" vertex="1" parent="5xNHKXfiNT54m_kRX64C-27">
          <mxGeometry x="-30" y="50" width="230" height="130" as="geometry" />
        </mxCell>
        <mxCell id="5xNHKXfiNT54m_kRX64C-31" value="Extracted Test" style="shape=cylinder3;html=1;boundedLbl=1;backgroundOutline=1;size=15;fontColor=#000000;labelBorderColor=none;labelBackgroundColor=none;whiteSpace=wrap;fontSize=14;" vertex="1" parent="5xNHKXfiNT54m_kRX64C-27">
          <mxGeometry x="40" y="150" width="90" height="70" as="geometry" />
        </mxCell>
        <mxCell id="5xNHKXfiNT54m_kRX64C-32" value="Extracted Validation" style="shape=cylinder3;html=1;boundedLbl=1;backgroundOutline=1;size=15;fontColor=#000000;labelBorderColor=none;labelBackgroundColor=none;whiteSpace=wrap;fontSize=14;" vertex="1" parent="5xNHKXfiNT54m_kRX64C-27">
          <mxGeometry x="40" y="100" width="90" height="70" as="geometry" />
        </mxCell>
        <mxCell id="5xNHKXfiNT54m_kRX64C-33" value="Extracted Train" style="shape=cylinder3;html=1;boundedLbl=1;backgroundOutline=1;size=15;fontColor=#000000;labelBorderColor=none;labelBackgroundColor=none;whiteSpace=wrap;fontSize=14;" vertex="1" parent="5xNHKXfiNT54m_kRX64C-27">
          <mxGeometry x="40" y="50" width="90" height="70" as="geometry" />
        </mxCell>
        <mxCell id="5xNHKXfiNT54m_kRX64C-34" value="Extracted Fold i" style="text;strokeColor=none;align=center;fillColor=none;html=1;verticalAlign=middle;rounded=0;fontColor=#000000;labelBorderColor=none;labelBackgroundColor=none;whiteSpace=wrap;fontSize=14;" vertex="1" parent="5xNHKXfiNT54m_kRX64C-27">
          <mxGeometry x="55" y="10" width="60" height="30" as="geometry" />
        </mxCell>
        <mxCell id="5xNHKXfiNT54m_kRX64C-53" style="edgeStyle=orthogonalEdgeStyle;rounded=0;orthogonalLoop=1;jettySize=auto;html=1;exitX=1;exitY=0.5;exitDx=0;exitDy=0;entryX=0.5;entryY=0;entryDx=0;entryDy=0;fontColor=#000000;labelBorderColor=none;labelBackgroundColor=none;fontSize=14;" edge="1" parent="1" source="5xNHKXfiNT54m_kRX64C-35" target="5xNHKXfiNT54m_kRX64C-39">
          <mxGeometry relative="1" as="geometry">
            <mxPoint x="1570" y="450" as="targetPoint" />
          </mxGeometry>
        </mxCell>
        <mxCell id="5xNHKXfiNT54m_kRX64C-55" style="edgeStyle=orthogonalEdgeStyle;rounded=0;orthogonalLoop=1;jettySize=auto;html=1;exitX=1;exitY=0.5;exitDx=0;exitDy=0;entryX=0.5;entryY=0;entryDx=0;entryDy=0;fontColor=#000000;labelBorderColor=none;labelBackgroundColor=none;fontSize=14;" edge="1" parent="1" source="5xNHKXfiNT54m_kRX64C-35" target="5xNHKXfiNT54m_kRX64C-48">
          <mxGeometry relative="1" as="geometry" />
        </mxCell>
        <mxCell id="5xNHKXfiNT54m_kRX64C-35" value="separate_feautres_and_target" style="rounded=0;html=1;fontColor=#000000;labelBorderColor=none;labelBackgroundColor=none;whiteSpace=wrap;fontSize=14;" vertex="1" parent="1">
          <mxGeometry x="1120" y="225" width="190" height="60" as="geometry" />
        </mxCell>
        <mxCell id="5xNHKXfiNT54m_kRX64C-36" value="" style="group;fontColor=#000000;labelBorderColor=none;labelBackgroundColor=none;whiteSpace=wrap;fontSize=14;" vertex="1" connectable="0" parent="1">
          <mxGeometry x="1290" y="325" width="150" height="250" as="geometry" />
        </mxCell>
        <mxCell id="5xNHKXfiNT54m_kRX64C-37" value="" style="rounded=1;html=1;rotation=90;fontColor=#000000;labelBorderColor=none;labelBackgroundColor=none;whiteSpace=wrap;fontSize=14;" vertex="1" parent="5xNHKXfiNT54m_kRX64C-36">
          <mxGeometry x="-50" y="70" width="230" height="130" as="geometry" />
        </mxCell>
        <mxCell id="5xNHKXfiNT54m_kRX64C-38" value="" style="rounded=1;html=1;rotation=90;fontColor=#000000;labelBorderColor=none;labelBackgroundColor=none;whiteSpace=wrap;fontSize=14;" vertex="1" parent="5xNHKXfiNT54m_kRX64C-36">
          <mxGeometry x="-40" y="60" width="230" height="130" as="geometry" />
        </mxCell>
        <mxCell id="5xNHKXfiNT54m_kRX64C-39" value="" style="rounded=1;html=1;rotation=90;fontColor=#000000;labelBorderColor=none;labelBackgroundColor=none;whiteSpace=wrap;fontSize=14;" vertex="1" parent="5xNHKXfiNT54m_kRX64C-36">
          <mxGeometry x="-30" y="50" width="230" height="130" as="geometry" />
        </mxCell>
        <mxCell id="5xNHKXfiNT54m_kRX64C-40" value="Test_X" style="shape=cylinder3;html=1;boundedLbl=1;backgroundOutline=1;size=15;fontColor=#000000;labelBorderColor=none;labelBackgroundColor=none;whiteSpace=wrap;fontSize=14;" vertex="1" parent="5xNHKXfiNT54m_kRX64C-36">
          <mxGeometry x="40" y="150" width="90" height="70" as="geometry" />
        </mxCell>
        <mxCell id="5xNHKXfiNT54m_kRX64C-41" value="Val_X" style="shape=cylinder3;html=1;boundedLbl=1;backgroundOutline=1;size=15;fontColor=#000000;labelBorderColor=none;labelBackgroundColor=none;whiteSpace=wrap;fontSize=14;" vertex="1" parent="5xNHKXfiNT54m_kRX64C-36">
          <mxGeometry x="40" y="100" width="90" height="70" as="geometry" />
        </mxCell>
        <mxCell id="5xNHKXfiNT54m_kRX64C-42" value="Train_X" style="shape=cylinder3;html=1;boundedLbl=1;backgroundOutline=1;size=15;fontColor=#000000;labelBorderColor=none;labelBackgroundColor=none;whiteSpace=wrap;fontSize=14;" vertex="1" parent="5xNHKXfiNT54m_kRX64C-36">
          <mxGeometry x="40" y="50" width="90" height="70" as="geometry" />
        </mxCell>
        <mxCell id="5xNHKXfiNT54m_kRX64C-43" value="Unprocessed Xs i" style="text;strokeColor=none;align=center;fillColor=none;html=1;verticalAlign=middle;rounded=0;fontColor=#000000;labelBorderColor=none;labelBackgroundColor=none;whiteSpace=wrap;fontSize=14;" vertex="1" parent="5xNHKXfiNT54m_kRX64C-36">
          <mxGeometry x="55" y="10" width="60" height="30" as="geometry" />
        </mxCell>
        <mxCell id="5xNHKXfiNT54m_kRX64C-44" value="preprocessor" style="rounded=0;html=1;fontColor=#000000;labelBorderColor=none;labelBackgroundColor=none;whiteSpace=wrap;fontSize=14;" vertex="1" parent="1">
          <mxGeometry x="1090" y="440" width="120" height="60" as="geometry" />
        </mxCell>
        <mxCell id="5xNHKXfiNT54m_kRX64C-45" value="" style="group;fontColor=#000000;labelBorderColor=none;labelBackgroundColor=none;whiteSpace=wrap;fontSize=14;" vertex="1" connectable="0" parent="1">
          <mxGeometry x="1290" y="630" width="150" height="250" as="geometry" />
        </mxCell>
        <mxCell id="5xNHKXfiNT54m_kRX64C-46" value="" style="rounded=1;html=1;rotation=90;fontColor=#000000;labelBorderColor=none;labelBackgroundColor=none;whiteSpace=wrap;fontSize=14;" vertex="1" parent="5xNHKXfiNT54m_kRX64C-45">
          <mxGeometry x="-50" y="70" width="230" height="130" as="geometry" />
        </mxCell>
        <mxCell id="5xNHKXfiNT54m_kRX64C-47" value="" style="rounded=1;html=1;rotation=90;fontColor=#000000;labelBorderColor=none;labelBackgroundColor=none;whiteSpace=wrap;fontSize=14;" vertex="1" parent="5xNHKXfiNT54m_kRX64C-45">
          <mxGeometry x="-40" y="60" width="230" height="130" as="geometry" />
        </mxCell>
        <mxCell id="5xNHKXfiNT54m_kRX64C-48" value="" style="rounded=1;html=1;rotation=90;fontColor=#000000;labelBorderColor=none;labelBackgroundColor=none;whiteSpace=wrap;fontSize=14;" vertex="1" parent="5xNHKXfiNT54m_kRX64C-45">
          <mxGeometry x="-30" y="50" width="230" height="130" as="geometry" />
        </mxCell>
        <mxCell id="5xNHKXfiNT54m_kRX64C-49" value="test_y" style="shape=cylinder3;html=1;boundedLbl=1;backgroundOutline=1;size=15;fontColor=#000000;labelBorderColor=none;labelBackgroundColor=none;whiteSpace=wrap;fontSize=14;" vertex="1" parent="5xNHKXfiNT54m_kRX64C-45">
          <mxGeometry x="40" y="150" width="90" height="70" as="geometry" />
        </mxCell>
        <mxCell id="5xNHKXfiNT54m_kRX64C-50" value="val_y" style="shape=cylinder3;html=1;boundedLbl=1;backgroundOutline=1;size=15;fontColor=#000000;labelBorderColor=none;labelBackgroundColor=none;whiteSpace=wrap;fontSize=14;" vertex="1" parent="5xNHKXfiNT54m_kRX64C-45">
          <mxGeometry x="40" y="100" width="90" height="70" as="geometry" />
        </mxCell>
        <mxCell id="5xNHKXfiNT54m_kRX64C-51" value="train_y" style="shape=cylinder3;html=1;boundedLbl=1;backgroundOutline=1;size=15;fontColor=#000000;labelBorderColor=none;labelBackgroundColor=none;whiteSpace=wrap;fontSize=14;" vertex="1" parent="5xNHKXfiNT54m_kRX64C-45">
          <mxGeometry x="40" y="50" width="90" height="70" as="geometry" />
        </mxCell>
        <mxCell id="5xNHKXfiNT54m_kRX64C-52" value="Unprocessed ys i" style="text;strokeColor=none;align=center;fillColor=none;html=1;verticalAlign=middle;rounded=0;fontColor=#000000;labelBorderColor=none;labelBackgroundColor=none;whiteSpace=wrap;fontSize=14;" vertex="1" parent="5xNHKXfiNT54m_kRX64C-45">
          <mxGeometry x="55" y="10" width="60" height="30" as="geometry" />
        </mxCell>
        <mxCell id="5xNHKXfiNT54m_kRX64C-56" value="produce_target()" style="rounded=0;html=1;fontColor=#000000;labelBorderColor=none;labelBackgroundColor=none;whiteSpace=wrap;fontSize=14;" vertex="1" parent="1">
          <mxGeometry x="1090" y="720" width="120" height="60" as="geometry" />
        </mxCell>
        <mxCell id="5xNHKXfiNT54m_kRX64C-85" value="" style="group;fontColor=#000000;labelBorderColor=none;labelBackgroundColor=none;whiteSpace=wrap;fontSize=14;" vertex="1" connectable="0" parent="1">
          <mxGeometry x="890" y="490" width="275" height="360" as="geometry" />
        </mxCell>
        <mxCell id="5xNHKXfiNT54m_kRX64C-71" value="" style="group;fontColor=#000000;labelBorderColor=none;labelBackgroundColor=none;whiteSpace=wrap;fontSize=14;" vertex="1" connectable="0" parent="5xNHKXfiNT54m_kRX64C-85">
          <mxGeometry width="275" height="360" as="geometry" />
        </mxCell>
        <mxCell id="5xNHKXfiNT54m_kRX64C-97" value="" style="rounded=1;html=1;rotation=90;fontColor=#000000;labelBorderColor=none;labelBackgroundColor=none;whiteSpace=wrap;fontSize=14;" vertex="1" parent="5xNHKXfiNT54m_kRX64C-71">
          <mxGeometry x="-140" y="122.5" width="380" height="130" as="geometry" />
        </mxCell>
        <mxCell id="5xNHKXfiNT54m_kRX64C-96" value="" style="rounded=1;html=1;rotation=90;fontColor=#000000;labelBorderColor=none;labelBackgroundColor=none;whiteSpace=wrap;fontSize=14;" vertex="1" parent="5xNHKXfiNT54m_kRX64C-71">
          <mxGeometry x="-130" y="115" width="380" height="130" as="geometry" />
        </mxCell>
        <mxCell id="5xNHKXfiNT54m_kRX64C-74" value="" style="rounded=1;html=1;rotation=90;fontColor=#000000;labelBorderColor=none;labelBackgroundColor=none;whiteSpace=wrap;fontSize=14;" vertex="1" parent="5xNHKXfiNT54m_kRX64C-71">
          <mxGeometry x="-120" y="110" width="380" height="130" as="geometry" />
        </mxCell>
        <mxCell id="5xNHKXfiNT54m_kRX64C-75" value="Test_X" style="shape=cylinder3;html=1;boundedLbl=1;backgroundOutline=1;size=15;fontColor=#000000;labelBorderColor=none;labelBackgroundColor=none;whiteSpace=wrap;fontSize=14;" vertex="1" parent="5xNHKXfiNT54m_kRX64C-71">
          <mxGeometry x="25" y="130" width="90" height="70" as="geometry" />
        </mxCell>
        <mxCell id="5xNHKXfiNT54m_kRX64C-76" value="Val_X" style="shape=cylinder3;html=1;boundedLbl=1;backgroundOutline=1;size=15;fontColor=#000000;labelBorderColor=none;labelBackgroundColor=none;whiteSpace=wrap;fontSize=14;" vertex="1" parent="5xNHKXfiNT54m_kRX64C-71">
          <mxGeometry x="25" y="92.5" width="90" height="70" as="geometry" />
        </mxCell>
        <mxCell id="5xNHKXfiNT54m_kRX64C-77" value="Train_X" style="shape=cylinder3;html=1;boundedLbl=1;backgroundOutline=1;size=15;fontColor=#000000;labelBorderColor=none;labelBackgroundColor=none;whiteSpace=wrap;fontSize=14;" vertex="1" parent="5xNHKXfiNT54m_kRX64C-71">
          <mxGeometry x="25" y="50" width="90" height="70" as="geometry" />
        </mxCell>
        <mxCell id="5xNHKXfiNT54m_kRX64C-78" value="Processed Fold i" style="text;strokeColor=none;align=center;fillColor=none;html=1;verticalAlign=middle;rounded=0;fontColor=#000000;labelBorderColor=none;labelBackgroundColor=none;whiteSpace=wrap;fontSize=14;" vertex="1" parent="5xNHKXfiNT54m_kRX64C-71">
          <mxGeometry x="40" y="10" width="60" height="30" as="geometry" />
        </mxCell>
        <mxCell id="5xNHKXfiNT54m_kRX64C-86" value="Test_y" style="shape=cylinder3;html=1;boundedLbl=1;backgroundOutline=1;size=15;fontColor=#000000;labelBorderColor=none;labelBackgroundColor=none;whiteSpace=wrap;fontSize=14;" vertex="1" parent="5xNHKXfiNT54m_kRX64C-71">
          <mxGeometry x="25" y="290" width="90" height="70" as="geometry" />
        </mxCell>
        <mxCell id="5xNHKXfiNT54m_kRX64C-87" value="Val_y" style="shape=cylinder3;html=1;boundedLbl=1;backgroundOutline=1;size=15;fontColor=#000000;labelBorderColor=none;labelBackgroundColor=none;whiteSpace=wrap;fontSize=14;" vertex="1" parent="5xNHKXfiNT54m_kRX64C-71">
          <mxGeometry x="25" y="252.5" width="90" height="70" as="geometry" />
        </mxCell>
        <mxCell id="5xNHKXfiNT54m_kRX64C-88" value="Train_y" style="shape=cylinder3;html=1;boundedLbl=1;backgroundOutline=1;size=15;fontColor=#000000;labelBorderColor=none;labelBackgroundColor=none;whiteSpace=wrap;fontSize=14;" vertex="1" parent="5xNHKXfiNT54m_kRX64C-71">
          <mxGeometry x="25" y="210" width="90" height="70" as="geometry" />
        </mxCell>
        <mxCell id="5xNHKXfiNT54m_kRX64C-89" style="edgeStyle=orthogonalEdgeStyle;rounded=0;orthogonalLoop=1;jettySize=auto;html=1;exitX=0.5;exitY=1;exitDx=0;exitDy=0;entryX=1;entryY=0.5;entryDx=0;entryDy=0;fontColor=#000000;labelBorderColor=none;labelBackgroundColor=none;fontSize=14;" edge="1" parent="1" source="5xNHKXfiNT54m_kRX64C-38" target="5xNHKXfiNT54m_kRX64C-44">
          <mxGeometry relative="1" as="geometry" />
        </mxCell>
        <mxCell id="5xNHKXfiNT54m_kRX64C-90" style="edgeStyle=orthogonalEdgeStyle;rounded=0;orthogonalLoop=1;jettySize=auto;html=1;exitX=0.5;exitY=1;exitDx=0;exitDy=0;fontColor=#000000;labelBorderColor=none;labelBackgroundColor=none;fontSize=14;" edge="1" parent="1" source="5xNHKXfiNT54m_kRX64C-48" target="5xNHKXfiNT54m_kRX64C-56">
          <mxGeometry relative="1" as="geometry" />
        </mxCell>
        <mxCell id="5xNHKXfiNT54m_kRX64C-91" style="edgeStyle=orthogonalEdgeStyle;rounded=0;orthogonalLoop=1;jettySize=auto;html=1;exitX=0;exitY=0.5;exitDx=0;exitDy=0;entryX=1;entryY=0.5;entryDx=0;entryDy=0;entryPerimeter=0;fontColor=#000000;labelBorderColor=none;labelBackgroundColor=none;fontSize=14;" edge="1" parent="1" source="5xNHKXfiNT54m_kRX64C-56" target="5xNHKXfiNT54m_kRX64C-87">
          <mxGeometry relative="1" as="geometry" />
        </mxCell>
        <mxCell id="5xNHKXfiNT54m_kRX64C-92" style="edgeStyle=orthogonalEdgeStyle;rounded=0;orthogonalLoop=1;jettySize=auto;html=1;exitX=0;exitY=0.5;exitDx=0;exitDy=0;entryX=1;entryY=0.5;entryDx=0;entryDy=0;entryPerimeter=0;fontColor=#000000;labelBorderColor=none;labelBackgroundColor=none;fontSize=14;" edge="1" parent="1" source="5xNHKXfiNT54m_kRX64C-44" target="5xNHKXfiNT54m_kRX64C-76">
          <mxGeometry relative="1" as="geometry" />
        </mxCell>
        <mxCell id="5xNHKXfiNT54m_kRX64C-98" style="edgeStyle=orthogonalEdgeStyle;rounded=0;orthogonalLoop=1;jettySize=auto;html=1;exitX=0.5;exitY=1;exitDx=0;exitDy=0;fontColor=#000000;labelBorderColor=none;labelBackgroundColor=none;fontSize=14;" edge="1" parent="1" source="5xNHKXfiNT54m_kRX64C-96" target="5xNHKXfiNT54m_kRX64C-99">
          <mxGeometry relative="1" as="geometry">
            <mxPoint x="780" y="670" as="targetPoint" />
          </mxGeometry>
        </mxCell>
        <mxCell id="5xNHKXfiNT54m_kRX64C-101" value="Best Model for Fold i" style="shape=cylinder3;html=1;boundedLbl=1;backgroundOutline=1;size=15;fontColor=#000000;labelBorderColor=none;labelBackgroundColor=none;whiteSpace=wrap;fontSize=14;" vertex="1" parent="1">
          <mxGeometry x="570" y="625" width="80" height="140" as="geometry" />
        </mxCell>
        <mxCell id="5xNHKXfiNT54m_kRX64C-103" value="For Fold i" style="text;strokeColor=none;align=center;fillColor=none;html=1;verticalAlign=middle;rounded=0;fontColor=#000000;labelBorderColor=none;labelBackgroundColor=none;whiteSpace=wrap;fontSize=14;" vertex="1" parent="1">
          <mxGeometry x="580" y="575" width="60" height="30" as="geometry" />
        </mxCell>
        <mxCell id="5xNHKXfiNT54m_kRX64C-104" style="edgeStyle=orthogonalEdgeStyle;rounded=0;orthogonalLoop=1;jettySize=auto;html=1;exitX=0;exitY=0.5;exitDx=0;exitDy=0;entryX=0.474;entryY=0.008;entryDx=0;entryDy=0;entryPerimeter=0;fontColor=#000000;labelBorderColor=none;labelBackgroundColor=none;fontSize=14;" edge="1" parent="1" source="5xNHKXfiNT54m_kRX64C-99" target="5xNHKXfiNT54m_kRX64C-102">
          <mxGeometry relative="1" as="geometry" />
        </mxCell>
        <mxCell id="5xNHKXfiNT54m_kRX64C-113" style="edgeStyle=orthogonalEdgeStyle;rounded=0;orthogonalLoop=1;jettySize=auto;html=1;exitX=0;exitY=0.5;exitDx=0;exitDy=0;entryX=0.5;entryY=0;entryDx=0;entryDy=0;fontColor=#000000;labelBorderColor=none;labelBackgroundColor=none;fontSize=14;" edge="1" parent="1" source="5xNHKXfiNT54m_kRX64C-105" target="5xNHKXfiNT54m_kRX64C-107">
          <mxGeometry relative="1" as="geometry" />
        </mxCell>
        <mxCell id="5xNHKXfiNT54m_kRX64C-105" value="predict" style="rounded=0;html=1;fontColor=#000000;labelBorderColor=none;labelBackgroundColor=none;whiteSpace=wrap;fontSize=14;" vertex="1" parent="1">
          <mxGeometry x="395" y="640" width="120" height="60" as="geometry" />
        </mxCell>
        <mxCell id="5xNHKXfiNT54m_kRX64C-110" value="" style="group;fontColor=#000000;labelBorderColor=none;labelBackgroundColor=none;whiteSpace=wrap;fontSize=14;" vertex="1" connectable="0" parent="1">
          <mxGeometry x="230" y="560" width="130" height="230" as="geometry" />
        </mxCell>
        <mxCell id="5xNHKXfiNT54m_kRX64C-112" style="edgeStyle=orthogonalEdgeStyle;rounded=0;orthogonalLoop=1;jettySize=auto;html=1;fontColor=#000000;labelBorderColor=none;labelBackgroundColor=none;fontSize=14;" edge="1" parent="5xNHKXfiNT54m_kRX64C-110" source="5xNHKXfiNT54m_kRX64C-107">
          <mxGeometry relative="1" as="geometry">
            <mxPoint x="-80" y="115" as="targetPoint" />
          </mxGeometry>
        </mxCell>
        <mxCell id="5xNHKXfiNT54m_kRX64C-107" value="" style="rounded=1;html=1;rotation=90;fontColor=#000000;labelBorderColor=none;labelBackgroundColor=none;whiteSpace=wrap;fontSize=14;" vertex="1" parent="5xNHKXfiNT54m_kRX64C-110">
          <mxGeometry x="-50" y="50" width="230" height="130" as="geometry" />
        </mxCell>
        <mxCell id="5xNHKXfiNT54m_kRX64C-108" value="predictions of the best model for the test set" style="shape=cylinder3;html=1;boundedLbl=1;backgroundOutline=1;size=15;fontColor=#000000;labelBorderColor=none;labelBackgroundColor=none;whiteSpace=wrap;fontSize=14;" vertex="1" parent="5xNHKXfiNT54m_kRX64C-110">
          <mxGeometry x="25" y="70" width="80" height="140" as="geometry" />
        </mxCell>
        <mxCell id="5xNHKXfiNT54m_kRX64C-109" value="For Fold i" style="text;strokeColor=none;align=center;fillColor=none;html=1;verticalAlign=middle;rounded=0;fontColor=#000000;labelBorderColor=none;labelBackgroundColor=none;whiteSpace=wrap;fontSize=14;" vertex="1" parent="5xNHKXfiNT54m_kRX64C-110">
          <mxGeometry x="35" y="20" width="60" height="30" as="geometry" />
        </mxCell>
        <mxCell id="5xNHKXfiNT54m_kRX64C-111" value="Combined predictions on all test set" style="shape=cylinder3;html=1;boundedLbl=1;backgroundOutline=1;size=15;fontColor=#000000;labelBorderColor=none;labelBackgroundColor=none;whiteSpace=wrap;fontSize=14;" vertex="1" parent="1">
          <mxGeometry x="60" y="600" width="80" height="140" as="geometry" />
        </mxCell>
        <mxCell id="5xNHKXfiNT54m_kRX64C-114" style="edgeStyle=orthogonalEdgeStyle;rounded=0;orthogonalLoop=1;jettySize=auto;html=1;exitX=0;exitY=0;exitDx=0;exitDy=45;exitPerimeter=0;entryX=0.5;entryY=1;entryDx=0;entryDy=0;fontColor=#000000;labelBorderColor=none;labelBackgroundColor=none;fontSize=14;" edge="1" parent="1" source="5xNHKXfiNT54m_kRX64C-86" target="5xNHKXfiNT54m_kRX64C-105">
          <mxGeometry relative="1" as="geometry" />
        </mxCell>
        <mxCell id="5xNHKXfiNT54m_kRX64C-116" style="edgeStyle=orthogonalEdgeStyle;rounded=0;orthogonalLoop=1;jettySize=auto;html=1;exitX=1;exitY=0.5;exitDx=0;exitDy=0;exitPerimeter=0;entryX=0;entryY=0.5;entryDx=0;entryDy=0;fontColor=#000000;labelBorderColor=none;labelBackgroundColor=none;fontSize=14;" edge="1" parent="1" source="5xNHKXfiNT54m_kRX64C-69" target="5xNHKXfiNT54m_kRX64C-25">
          <mxGeometry relative="1" as="geometry" />
        </mxCell>
        <mxCell id="5xNHKXfiNT54m_kRX64C-118" style="edgeStyle=orthogonalEdgeStyle;rounded=0;orthogonalLoop=1;jettySize=auto;html=1;exitX=1;exitY=0.5;exitDx=0;exitDy=0;exitPerimeter=0;entryX=0;entryY=0.25;entryDx=0;entryDy=0;fontColor=#000000;labelBorderColor=none;labelBackgroundColor=none;fontSize=14;" edge="1" parent="1" source="5xNHKXfiNT54m_kRX64C-67" target="5xNHKXfiNT54m_kRX64C-25">
          <mxGeometry relative="1" as="geometry" />
        </mxCell>
        <mxCell id="5xNHKXfiNT54m_kRX64C-119" style="edgeStyle=orthogonalEdgeStyle;rounded=0;orthogonalLoop=1;jettySize=auto;html=1;exitX=1;exitY=0.5;exitDx=0;exitDy=0;fontColor=#000000;labelBorderColor=none;labelBackgroundColor=none;fontSize=14;" edge="1" parent="1" source="5xNHKXfiNT54m_kRX64C-25" target="5xNHKXfiNT54m_kRX64C-30">
          <mxGeometry relative="1" as="geometry" />
        </mxCell>
        <mxCell id="5xNHKXfiNT54m_kRX64C-120" style="edgeStyle=orthogonalEdgeStyle;rounded=0;orthogonalLoop=1;jettySize=auto;html=1;exitX=0.5;exitY=0;exitDx=0;exitDy=0;entryX=0;entryY=0.5;entryDx=0;entryDy=0;fontColor=#000000;labelBorderColor=none;labelBackgroundColor=none;fontSize=14;" edge="1" parent="1" source="5xNHKXfiNT54m_kRX64C-30" target="5xNHKXfiNT54m_kRX64C-35">
          <mxGeometry relative="1" as="geometry" />
        </mxCell>
        <mxCell id="5xNHKXfiNT54m_kRX64C-121" style="edgeStyle=orthogonalEdgeStyle;rounded=0;orthogonalLoop=1;jettySize=auto;html=1;exitX=1;exitY=0.5;exitDx=0;exitDy=0;entryX=0;entryY=0;entryDx=0;entryDy=15;entryPerimeter=0;fontColor=#000000;labelBorderColor=none;labelBackgroundColor=none;fontSize=14;" edge="1" parent="1" source="5xNHKXfiNT54m_kRX64C-1" target="5xNHKXfiNT54m_kRX64C-14">
          <mxGeometry relative="1" as="geometry" />
        </mxCell>
        <mxCell id="5xNHKXfiNT54m_kRX64C-122" style="edgeStyle=orthogonalEdgeStyle;rounded=0;orthogonalLoop=1;jettySize=auto;html=1;exitX=1;exitY=0;exitDx=0;exitDy=15;exitPerimeter=0;entryX=0;entryY=0.5;entryDx=0;entryDy=0;fontColor=#000000;labelBorderColor=none;labelBackgroundColor=none;fontSize=14;" edge="1" parent="1" source="5xNHKXfiNT54m_kRX64C-14" target="5xNHKXfiNT54m_kRX64C-17">
          <mxGeometry relative="1" as="geometry" />
        </mxCell>
        <mxCell id="5xNHKXfiNT54m_kRX64C-123" style="edgeStyle=orthogonalEdgeStyle;rounded=0;orthogonalLoop=1;jettySize=auto;html=1;exitX=1;exitY=0.5;exitDx=0;exitDy=0;entryX=0.543;entryY=0.992;entryDx=0;entryDy=0;entryPerimeter=0;fontColor=#000000;labelBorderColor=none;labelBackgroundColor=none;fontSize=14;" edge="1" parent="1" source="5xNHKXfiNT54m_kRX64C-17" target="5xNHKXfiNT54m_kRX64C-66">
          <mxGeometry relative="1" as="geometry" />
        </mxCell>
        <mxCell id="5xNHKXfiNT54m_kRX64C-124" value="" style="swimlane;startSize=0;fontColor=#000000;labelBorderColor=none;labelBackgroundColor=none;whiteSpace=wrap;fontSize=14;" vertex="1" parent="1">
          <mxGeometry x="380" y="110" width="170" height="270" as="geometry" />
        </mxCell>
        <mxCell id="5xNHKXfiNT54m_kRX64C-125" value="raw_data_folding.py" style="text;html=1;align=center;verticalAlign=middle;resizable=0;points=[];autosize=1;strokeColor=none;fillColor=none;fontSize=14;fontColor=#000000;labelBorderColor=none;labelBackgroundColor=none;" vertex="1" parent="1">
          <mxGeometry x="390" y="80" width="150" height="30" as="geometry" />
        </mxCell>
        <mxCell id="5xNHKXfiNT54m_kRX64C-126" value="" style="swimlane;startSize=0;fontColor=#000000;labelBorderColor=none;labelBackgroundColor=none;whiteSpace=wrap;fontSize=14;" vertex="1" parent="1">
          <mxGeometry x="735" y="110" width="170" height="270" as="geometry" />
        </mxCell>
        <mxCell id="5xNHKXfiNT54m_kRX64C-127" value="feature_extraction.py" style="text;html=1;align=center;verticalAlign=middle;resizable=0;points=[];autosize=1;strokeColor=none;fillColor=none;fontSize=14;fontColor=#000000;labelBorderColor=none;labelBackgroundColor=none;" vertex="1" parent="1">
          <mxGeometry x="745" y="80" width="150" height="30" as="geometry" />
        </mxCell>
        <mxCell id="5xNHKXfiNT54m_kRX64C-128" value="" style="swimlane;startSize=0;fontColor=#000000;labelBorderColor=none;labelBackgroundColor=none;whiteSpace=wrap;fontSize=14;" vertex="1" parent="1">
          <mxGeometry x="1090" y="110" width="230" height="210" as="geometry" />
        </mxCell>
        <mxCell id="5xNHKXfiNT54m_kRX64C-129" value="feature_target_separation.py" style="text;html=1;align=center;verticalAlign=middle;resizable=0;points=[];autosize=1;strokeColor=none;fillColor=none;fontSize=14;fontColor=#000000;labelBorderColor=none;labelBackgroundColor=none;" vertex="1" parent="1">
          <mxGeometry x="1105" y="80" width="200" height="30" as="geometry" />
        </mxCell>
        <mxCell id="5xNHKXfiNT54m_kRX64C-130" value="" style="swimlane;startSize=0;fontColor=#000000;labelBorderColor=none;labelBackgroundColor=none;whiteSpace=wrap;fontSize=14;" vertex="1" parent="1">
          <mxGeometry x="1070" y="420" width="170" height="130" as="geometry" />
        </mxCell>
        <mxCell id="5xNHKXfiNT54m_kRX64C-131" value="preprocessors.py" style="text;html=1;align=center;verticalAlign=middle;resizable=0;points=[];autosize=1;strokeColor=none;fillColor=none;fontSize=14;fontColor=#000000;labelBorderColor=none;labelBackgroundColor=none;" vertex="1" parent="1">
          <mxGeometry x="1090" y="390" width="130" height="30" as="geometry" />
        </mxCell>
        <mxCell id="5xNHKXfiNT54m_kRX64C-132" value="" style="swimlane;startSize=0;fontColor=#000000;labelBorderColor=none;labelBackgroundColor=none;whiteSpace=wrap;fontSize=14;" vertex="1" parent="1">
          <mxGeometry x="1065" y="705" width="170" height="130" as="geometry" />
        </mxCell>
        <mxCell id="5xNHKXfiNT54m_kRX64C-133" value="labeling.py" style="text;html=1;align=center;verticalAlign=middle;resizable=0;points=[];autosize=1;strokeColor=none;fillColor=none;fontSize=14;fontColor=#000000;labelBorderColor=none;labelBackgroundColor=none;" vertex="1" parent="1">
          <mxGeometry x="1105" y="675" width="90" height="30" as="geometry" />
        </mxCell>
        <mxCell id="5xNHKXfiNT54m_kRX64C-136" value="" style="swimlane;startSize=0;fontColor=#000000;labelBorderColor=none;labelBackgroundColor=none;whiteSpace=wrap;fontSize=14;" vertex="1" parent="1">
          <mxGeometry x="705" y="610" width="160" height="130" as="geometry" />
        </mxCell>
        <mxCell id="5xNHKXfiNT54m_kRX64C-99" value="tune_hyper_params()" style="rounded=0;html=1;fontColor=#000000;labelBorderColor=none;labelBackgroundColor=none;whiteSpace=wrap;fontSize=14;" vertex="1" parent="5xNHKXfiNT54m_kRX64C-136">
          <mxGeometry x="10" y="30" width="140" height="60" as="geometry" />
        </mxCell>
        <mxCell id="5xNHKXfiNT54m_kRX64C-137" value="model_flow.py" style="text;html=1;align=center;verticalAlign=middle;resizable=0;points=[];autosize=1;strokeColor=none;fillColor=none;fontSize=14;fontColor=#000000;labelBorderColor=none;labelBackgroundColor=none;" vertex="1" parent="1">
          <mxGeometry x="730" y="580" width="110" height="30" as="geometry" />
        </mxCell>
      </root>
    </mxGraphModel>
  </diagram>
</mxfile>
